<svg width="74" height="74" viewBox="0 0 74 74" fill="none" stroke="#000" xmlns="http://www.w3.org/2000/svg">
<g clip-path="url(#clip0_2_1224)">
<path d="M56.8265 71.0176L49.2611 63.3446C48.9968 63.0767 48.6386 62.9261 48.265 62.9261C48.2643 62.9261 48.2636 62.9261 48.263 62.9261L44.2039 62.932C44.195 62.932 44.1862 62.932 44.1773 62.932C41.9366 62.932 39.692 62.5142 37.5913 61.7169L40.027 60.0605C41.0241 59.3825 41.6945 58.3502 41.9149 57.1535C42.1353 55.9567 41.8775 54.7484 41.1889 53.751C40.3327 52.5111 38.9539 51.838 37.55 51.838C37.5272 51.838 37.5044 51.8381 37.4814 51.8385L43.092 46.1489C44.7941 44.4226 44.7941 41.6139 43.092 39.8877C42.6779 39.4677 42.1951 39.1427 41.6694 38.923C42.0591 38.2513 42.2674 37.484 42.2674 36.6842C42.2674 35.5017 41.8132 34.3897 40.9887 33.5534C40.1641 32.7172 39.0677 32.2566 37.9015 32.2566C37.1127 32.2566 36.3563 32.4681 35.6938 32.8632C35.4771 32.3301 35.1567 31.8405 34.7425 31.4204C33.9179 30.5841 32.8215 30.1236 31.6552 30.1236C30.489 30.1236 29.3926 30.5841 28.568 31.4204L26.5534 33.4633C26.3392 32.9846 26.0404 32.5435 25.6628 32.1605C24.8382 31.3242 23.7418 30.8638 22.5756 30.8638C21.4093 30.8638 20.313 31.3244 19.4883 32.1605L18.5954 33.066L14.965 29.4053C13.9105 28.3359 13.9105 26.5958 14.965 25.5264C15.9529 24.5246 17.5211 24.4615 18.5823 25.3364L22.098 28.9019C22.3732 29.1809 22.7336 29.3203 23.0941 29.3203C23.4546 29.3203 23.8152 29.1807 24.0902 28.9019C24.6403 28.3441 24.6403 27.4395 24.0902 26.8817L18.025 20.731C16.9704 19.6615 16.9704 17.9214 18.025 16.852C19.0795 15.7825 20.7956 15.7826 21.8501 16.852L32.4768 27.6491C32.7519 27.9281 33.1124 28.0675 33.4729 28.0675C33.8333 28.0675 34.194 27.9279 34.4689 27.6491C35.019 27.0912 35.019 26.1867 34.4689 25.6289L26.3917 17.417C25.5289 16.3408 25.5913 14.7507 26.5791 13.749C27.6337 12.6796 29.3498 12.6796 30.4042 13.749L33.3635 16.7502C33.9138 17.3081 34.8058 17.3081 35.3557 16.7502C35.9058 16.1923 35.9059 15.2878 35.3557 14.73L32.3963 11.7288C30.2432 9.54542 26.7399 9.54556 24.5869 11.7288C23.8754 12.4503 23.4006 13.3217 23.1593 14.2435C22.2267 13.561 21.1104 13.1917 19.9375 13.1917C18.4625 13.1917 17.0758 13.7743 16.0328 14.8318C14.0948 16.7972 13.9023 19.8715 15.4533 22.0586C14.5441 22.3031 13.6845 22.7847 12.9729 23.5064C10.941 25.567 10.8277 28.8465 12.631 31.0442C11.742 31.2932 10.9025 31.7699 10.2051 32.4772C8.05222 34.6605 8.05222 38.2131 10.2051 40.3966L10.8338 41.0342C8.45665 43.9287 7.16475 47.5401 7.1701 51.3538L7.17348 53.72L1.39352 59.5818C0.843435 60.1397 0.843435 61.0442 1.39352 61.6022C1.66864 61.881 2.02912 62.0206 2.3896 62.0206C2.75008 62.0206 3.11071 61.881 3.38568 61.6022L9.57909 55.3214C9.84378 55.053 9.99225 54.6887 9.99169 54.3092L9.98746 51.35C9.98239 47.7995 11.3433 44.4612 13.8191 41.9506L20.8098 34.8613C20.8098 34.8613 20.8098 34.8611 20.8099 34.8611L21.4805 34.1811C21.7729 33.8844 22.1617 33.7212 22.5754 33.7212C22.9892 33.7212 23.378 33.8844 23.6704 34.1811C23.963 34.4777 24.124 34.872 24.124 35.2915C24.124 35.6517 24.0045 35.9929 23.7856 36.2701L21.9235 38.1584C21.3734 38.7163 21.3734 39.6208 21.9235 40.1788C21.9248 40.1801 21.9262 40.1811 21.9273 40.1824C21.9286 40.1836 21.9296 40.1849 21.9308 40.1862C22.2059 40.4651 22.5664 40.6046 22.9269 40.6046C23.2874 40.6046 23.648 40.4651 23.923 40.1862L30.5598 33.4409C30.8523 33.1442 31.2411 32.9809 31.6548 32.9809C32.0685 32.9809 32.4573 33.1443 32.7498 33.4409C33.3118 34.0109 33.35 34.9134 32.8654 35.5294L26.1055 42.3996C25.5554 42.9574 25.5554 43.8619 26.1055 44.4199C26.3806 44.6988 26.7411 44.8383 27.1015 44.8383C27.462 44.8383 27.8226 44.6988 28.0976 44.4199L36.8059 35.5739C37.0984 35.2772 37.4872 35.114 37.9009 35.114C38.3146 35.114 38.7034 35.2774 38.9959 35.5739C39.5996 36.1862 39.5996 37.1825 38.9959 37.7947L30.2729 46.6256C29.7228 47.1834 29.7227 48.0879 30.2729 48.6459C30.8231 49.2036 31.7151 49.2038 32.2651 48.6459L39.04 41.7907C39.6472 41.2992 40.5373 41.3379 41.0993 41.9082C41.7031 42.5203 41.7031 43.5167 41.0993 44.1288L31.5886 53.7737C30.9186 54.453 30.8567 55.4947 31.4414 56.2507C32.026 57.0066 33.0386 57.1939 33.8488 56.6958L36.7221 54.9294C37.4465 54.4839 38.3945 54.6863 38.8804 55.3901C39.1312 55.7534 39.2251 56.1934 39.1448 56.6294C39.0645 57.0651 38.8204 57.441 38.4573 57.6879L31.8099 62.2083C29.6469 63.6793 27.128 64.4562 24.5239 64.4562C24.5179 64.4562 24.5115 64.4562 24.5055 64.4562L19.9905 64.4497C19.9898 64.4497 19.9892 64.4497 19.9885 64.4497C19.615 64.4497 19.2566 64.6002 18.9925 64.8681L12.7989 71.1489C12.2488 71.7067 12.2488 72.6112 12.7989 73.1692C13.074 73.4481 13.4345 73.5876 13.795 73.5876C14.1555 73.5876 14.5161 73.4481 14.7911 73.1692L20.5712 67.3077L24.5015 67.3134C24.509 67.3134 24.5162 67.3134 24.5238 67.3134C27.6884 67.3134 30.7503 66.3689 33.3789 64.5814L34.8024 63.6134C37.7112 65.0368 40.9475 65.7895 44.1766 65.7895C44.1866 65.7895 44.1971 65.7895 44.2073 65.7895L47.6817 65.7845L54.8344 73.0379C55.1095 73.3168 55.47 73.4563 55.8305 73.4563C56.1909 73.4563 56.5516 73.3168 56.8265 73.0379C57.3766 72.4801 57.3766 71.5756 56.8265 71.0176ZM15.6812 36.0218C15.6811 36.0219 15.6811 36.0219 15.6809 36.0221L12.7782 38.9657L12.1974 38.3767C11.1429 37.3072 11.1429 35.5671 12.1974 34.4977C13.1853 33.4959 14.7535 33.4327 15.8146 34.3077L16.5931 35.0971L15.6812 36.0218Z" fill="white"/>
<path d="M72.6927 54.9291C72.4307 54.6619 72.0672 54.5105 71.6968 54.5105C71.3263 54.5105 70.9628 54.6619 70.7008 54.9291C70.4388 55.1948 70.2881 55.5619 70.2881 55.939C70.2881 56.3147 70.4388 56.6833 70.7008 56.9488C70.9628 57.2145 71.3263 57.3675 71.6968 57.3675C72.0672 57.3675 72.4307 57.2147 72.6927 56.9488C72.9547 56.6817 73.1054 56.3147 73.1054 55.939C73.1054 55.5617 72.9547 55.1948 72.6927 54.9291Z" fill="white"/>
<path d="M68.9048 51.0872L65.54 47.675L65.5482 41.8993C65.5543 37.5354 64.2908 33.3131 61.8941 29.6887L55.6938 20.3121C54.8469 19.0313 53.5572 18.1701 52.0625 17.8869C50.5676 17.6038 49.0585 17.9351 47.8129 18.8196C45.772 20.2689 44.9605 22.8836 45.6822 25.2015L42.0006 21.468C41.4505 20.9103 40.5585 20.9103 40.0083 21.468C39.4582 22.0258 39.4582 22.9303 40.0083 23.4883L47.9172 31.5086C48.6488 32.2506 49.7711 32.3193 50.5853 31.6715C51.3996 31.0238 51.6013 29.9022 51.0647 29.0047L48.6418 24.9517C47.8811 23.6792 48.2268 22.0137 49.4288 21.1601C50.0492 20.7197 50.8013 20.5547 51.5452 20.6957C52.2897 20.8367 52.9319 21.2657 53.3537 21.9035L59.554 31.2801C61.6376 34.4311 62.7361 38.1017 62.7307 41.8953L62.7218 48.2639C62.7213 48.6434 62.8698 49.0077 63.1344 49.2761L66.9127 53.1076C67.1878 53.3864 67.5483 53.526 67.9087 53.526C68.2692 53.526 68.6298 53.3864 68.9048 53.1076C69.4549 52.5497 69.4549 51.6452 68.9048 51.0872Z" fill="white"/>
<path d="M38.6885 18.1102C38.4279 17.8445 38.0645 17.6917 37.694 17.6917C37.3221 17.6917 36.9601 17.8445 36.6967 18.1102C36.4347 18.3759 36.2839 18.7445 36.2839 19.1202C36.2839 19.4973 36.4347 19.8644 36.6967 20.1301C36.9601 20.3958 37.3221 20.5487 37.694 20.5487C38.0645 20.5487 38.4265 20.3958 38.6885 20.1301C38.952 19.8644 39.1027 19.4959 39.1027 19.1202C39.1027 18.7445 38.952 18.3759 38.6885 18.1102Z" fill="white"/>
<path d="M51.7618 40.2785C52.3119 39.7206 52.3119 38.8161 51.7618 38.2581C51.2117 37.7004 50.3197 37.7004 49.7695 38.2581L49.1551 38.8812C46.5245 41.549 46.5245 45.8897 49.1551 48.5573C49.4302 48.8362 49.7906 48.9757 50.1511 48.9757C50.5116 48.9757 50.8722 48.8362 51.1472 48.5573C51.6973 47.9995 51.6974 47.0949 51.1472 46.537C49.6151 44.9833 49.6151 42.4551 51.1472 40.9014L51.7618 40.2785Z" fill="white"/>
<path d="M68.2172 8.16211C67.3217 8.16211 66.4463 8.41981 65.6894 8.89108C64.9326 8.41981 64.0572 8.16211 63.1617 8.16211C60.4663 8.16211 58.2734 10.4266 58.2734 13.2098C58.2734 14.7872 59.3918 16.6815 61.6924 19.0014C63.2414 20.5634 64.7694 21.7522 64.8338 21.8021C65.0862 21.9979 65.3878 22.0958 65.6894 22.0958C65.991 22.0958 66.2925 21.9979 66.5451 21.8021C66.6095 21.7522 68.1375 20.5633 69.6864 19.0014C71.9871 16.6817 73.1054 14.7872 73.1054 13.2098C73.1054 10.4265 70.9126 8.16211 68.2172 8.16211ZM65.689 18.8397C63.3348 16.857 61.0908 14.327 61.0908 13.2098C61.0908 12.0018 62.0198 11.0192 63.1617 11.0192C63.7297 11.0192 64.2596 11.2579 64.6541 11.6916C64.9209 11.9847 65.2961 12.1514 65.6894 12.1514C66.0827 12.1514 66.4582 11.9847 66.7248 11.6916C67.1193 11.258 67.6492 11.0192 68.2172 11.0192C69.3591 11.0192 70.2881 12.0018 70.2881 13.2098C70.2881 14.3242 68.0434 16.8548 65.689 18.8397Z" fill="white"/>
<path d="M10.9247 0.44873C10.0292 0.44873 9.15384 0.706436 8.39696 1.1777C7.64008 0.706436 6.76472 0.44873 5.86922 0.44873C3.17385 0.448588 0.980957 2.71294 0.980957 5.49627C0.980957 7.07364 2.09931 8.968 4.39997 11.2879C5.94895 12.8499 7.47709 14.0388 7.54133 14.0887C7.79376 14.2845 8.09536 14.3824 8.39696 14.3824C8.69856 14.3824 9.00002 14.2845 9.25259 14.0887C9.31697 14.0388 10.845 12.8499 12.394 11.2881C14.6946 8.96815 15.813 7.07378 15.813 5.49641C15.813 2.71308 13.6201 0.44873 10.9247 0.44873ZM8.39654 11.1262C6.04221 9.14343 3.79832 6.61366 3.79832 5.49627C3.79832 4.28831 4.72734 3.30563 5.86922 3.30563C6.4372 3.30563 6.96715 3.54434 7.36158 3.97804C7.62838 4.27117 8.00366 4.43788 8.39696 4.43788C8.79026 4.43788 9.16568 4.27117 9.43234 3.97804C9.82677 3.54448 10.3567 3.30563 10.9247 3.30563C12.0666 3.30563 12.9956 4.28831 12.9956 5.49627C12.9956 6.61052 10.7509 9.14128 8.39654 11.1262Z" fill="white"/>
</g>
<defs>
<clipPath id="clip0_2_1224">
<rect width="72.1245" height="73.1403" fill="#000" transform="translate(0.980957 0.447754)"/>
</clipPath>
</defs>
</svg>
