<svg width="25" height="24" viewBox="0 0 25 24" fill="none" xmlns="http://www.w3.org/2000/svg">
<rect x="0.79541" y="-0.00292969" width="24" height="24" rx="4" fill="#54A029"/>
<path fill-rule="evenodd" clip-rule="evenodd" d="M7.33541 4.99707C7.39541 5.88707 7.54541 6.75707 7.78541 7.58707L6.58541 8.78707C6.17541 7.58707 5.91541 6.31707 5.82541 4.99707H7.33541ZM17.1954 17.0171C18.0454 17.2571 18.9154 17.4071 19.7954 17.4671V18.9571C18.4754 18.8671 17.2054 18.6071 15.9954 18.2071L17.1954 17.0171ZM8.29541 2.99707H4.79541C4.24541 2.99707 3.79541 3.44707 3.79541 3.99707C3.79541 13.3871 11.4054 20.9971 20.7954 20.9971C21.3454 20.9971 21.7954 20.5471 21.7954 19.9971V16.5071C21.7954 15.9571 21.3454 15.5071 20.7954 15.5071C19.5554 15.5071 18.3454 15.3071 17.2254 14.9371C17.1254 14.8971 17.0154 14.8871 16.9154 14.8871C16.6554 14.8871 16.4054 14.9871 16.2054 15.1771L14.0054 17.3771C11.1754 15.9271 8.85541 13.6171 7.41541 10.7871L9.61541 8.58707C9.89541 8.30707 9.97541 7.91707 9.86541 7.56707C9.49541 6.44707 9.29541 5.24707 9.29541 3.99707C9.29541 3.44707 8.84541 2.99707 8.29541 2.99707Z" fill="white"/>
</svg>
