<svg width="25" height="25" viewBox="0 0 25 25" fill="none" xmlns="http://www.w3.org/2000/svg">
<rect x="0.79541" y="0.667969" width="24" height="24" rx="4" fill="#54A029"/>
<path fill-rule="evenodd" clip-rule="evenodd" d="M12.7954 2.66797C16.6654 2.66797 19.7954 5.79797 19.7954 9.66797C19.7954 14.918 12.7954 22.668 12.7954 22.668C12.7954 22.668 5.79541 14.918 5.79541 9.66797C5.79541 5.79797 8.92541 2.66797 12.7954 2.66797ZM7.79541 9.66797C7.79541 12.518 10.7154 16.878 12.7954 19.548C14.9154 16.858 17.7954 12.548 17.7954 9.66797C17.7954 6.90797 15.5554 4.66797 12.7954 4.66797C10.0354 4.66797 7.79541 6.90797 7.79541 9.66797ZM12.7954 12.168C11.4147 12.168 10.2954 11.0487 10.2954 9.66797C10.2954 8.28726 11.4147 7.16797 12.7954 7.16797C14.1761 7.16797 15.2954 8.28726 15.2954 9.66797C15.2954 11.0487 14.1761 12.168 12.7954 12.168Z" fill="white"/>
</svg>
