<svg width="81" height="62" viewBox="0 0 81 62" fill="none" xmlns="http://www.w3.org/2000/svg">
<path d="M28.7532 42.3917C30.1994 41.7784 31.9826 41.2325 34.1029 40.7541C36.2232 40.2757 38.3618 40.0365 40.5189 40.0365C44.5878 40.0365 48.5097 40.8216 52.2845 42.3917C51.9904 40.4045 52.1252 38.4971 52.689 36.6694C53.2528 34.8417 54.1965 32.7257 55.5201 30.3215H49.7476C48.9142 30.3215 48.1972 30.0087 47.5967 29.3831C46.9961 28.7575 46.6958 28.0154 46.6958 27.1568C46.6958 26.2981 46.9961 25.556 47.5967 24.9304C48.1972 24.3048 48.9142 23.992 49.7476 23.992H57.432C57.6036 21.4897 57.622 19.7908 57.4872 18.8953C57.3523 17.9999 57.0153 17.2823 56.4761 16.7426C55.6917 15.9821 54.3558 15.3565 52.4684 14.8658C50.581 14.3752 48.9509 14.1298 47.5783 14.1298H33.4595C32.0868 14.1298 30.469 14.3752 28.6061 14.8658C26.7432 15.3565 25.4196 15.9821 24.6352 16.7426C24.096 17.2823 23.7589 17.9999 23.6241 18.8953C23.4893 19.7908 23.5077 21.4897 23.6793 23.992H31.327C32.1604 23.992 32.8834 24.3048 33.4962 24.9304C34.109 25.556 34.4154 26.2981 34.4154 27.1568C34.4154 28.0154 34.109 28.7575 33.4962 29.3831C32.8834 30.0087 32.1604 30.3215 31.327 30.3215H25.5912C26.8903 32.6767 27.8156 34.7804 28.3672 36.6326C28.9187 38.4848 29.0474 40.4045 28.7532 42.3917ZM28.7532 7.06436H52.2845C53.7798 7.06436 55.3485 7.84942 56.9908 9.41952C58.2164 9.41952 59.3194 9.33979 60.2999 9.18032C61.2804 9.02086 62.1567 8.7694 62.9288 8.42594C63.7009 8.08248 64.3566 7.73902 64.8959 7.39556C65.4351 7.0521 65.9989 6.54917 66.5872 5.88679C67.1755 5.2244 67.6473 4.66628 68.0027 4.21242C68.3581 3.75856 68.8606 3.07778 69.5102 2.17006C70.1598 1.26234 70.6929 0.538624 71.1096 -0.00109863C71.6488 1.47087 71.9491 2.85698 72.0104 4.15722C72.0717 5.45746 71.9307 6.57984 71.5876 7.52436C71.2444 8.46887 70.7542 9.33979 70.1169 10.1371C69.4796 10.9344 68.781 11.5907 68.0211 12.1059C67.2612 12.6211 66.434 13.0688 65.5393 13.449C64.6446 13.8293 63.8051 14.1114 63.0207 14.2954C62.2363 14.4794 61.4887 14.6082 60.7779 14.6818C60.9495 15.3442 61.1394 16.4237 61.3478 17.9202C61.5561 19.4167 61.6726 20.5084 61.6971 21.1953C61.8932 20.999 63.5048 20.1772 66.532 18.7297C69.5592 17.2823 71.1831 16.5586 71.4037 16.5586C71.6734 16.5586 72.4577 17.0615 73.7569 18.0674C75.056 19.0732 76.4409 20.1894 77.9116 21.4161C79.3823 22.6427 80.2525 23.3542 80.5221 23.5504C79.5171 24.2374 78.6715 24.9672 77.9852 25.74C77.2988 26.5128 76.8086 27.1629 76.5144 27.6904C76.2203 28.2178 75.8833 28.7146 75.5033 29.1807C75.1234 29.6469 74.5903 30.0026 73.9039 30.2479C73.2176 30.4932 72.2862 30.6159 71.1096 30.6159C70.1781 30.6159 69.2712 30.4626 68.3888 30.1559C67.5064 29.8493 66.6178 29.3709 65.7231 28.7207C64.8284 28.0706 64.1421 27.537 63.6641 27.12C63.1862 26.7029 62.5182 26.0773 61.6603 25.2432C61.4887 27.1322 61.1394 28.8618 60.6124 30.4319C60.0854 32.002 59.5645 33.2348 59.0498 34.1302C58.535 35.0257 58.0693 36.191 57.6526 37.6262C57.2359 39.0613 57.0153 40.6498 56.9908 42.3917C56.9663 43.4711 57.3523 45.1271 58.149 47.3596C58.9456 49.5921 59.3439 51.0763 59.3439 51.8123C59.3439 53.2843 58.8843 54.6029 57.9651 55.7682C57.046 56.9335 55.9062 57.8474 54.5457 58.5098C53.1853 59.1722 51.6166 59.718 49.8395 60.1473C48.0624 60.5767 46.4201 60.8649 44.9126 61.0121C43.4051 61.1593 41.9406 61.2329 40.5189 61.2329C39.0972 61.2329 37.6326 61.1593 36.1251 61.0121C34.6177 60.8649 32.9754 60.5767 31.1983 60.1473C29.4212 59.718 27.8524 59.1722 26.492 58.5098C25.1316 57.8474 23.9918 56.9335 23.0726 55.7682C22.1534 54.6029 21.6938 53.2843 21.6938 51.8123C21.6938 51.0763 22.0921 49.5921 22.8888 47.3596C23.6854 45.1271 24.0715 43.4711 24.0469 42.3917C24.0224 40.6498 23.8018 39.0613 23.3851 37.6262C22.9684 36.191 22.5027 35.0257 21.988 34.1302C21.4732 33.2348 20.9523 32.002 20.4253 30.4319C19.8983 28.8618 19.549 27.1322 19.3775 25.2432C18.5195 26.0773 17.8516 26.7029 17.3736 27.12C16.8956 27.537 16.2093 28.0706 15.3146 28.7207C14.4199 29.3709 13.5314 29.8493 12.649 30.1559C11.7665 30.4626 10.8596 30.6159 9.92815 30.6159C8.75159 30.6159 7.82014 30.4932 7.13381 30.2479C6.44748 30.0026 5.91435 29.6469 5.53441 29.1807C5.15448 28.7146 4.81744 28.2178 4.5233 27.6904C4.22916 27.1629 3.73893 26.5128 3.0526 25.74C2.36627 24.9672 1.52061 24.2374 0.515625 23.5504C0.760743 23.3787 1.63091 22.6734 3.12613 21.4345C4.62135 20.1956 6.01852 19.0732 7.31765 18.0674C8.61677 17.0615 9.40115 16.5586 9.67078 16.5586C9.89139 16.5586 11.5092 17.2823 14.5241 18.7297C17.5391 20.1772 19.1446 20.999 19.3407 21.1953C19.3652 20.5084 19.4878 19.4167 19.7084 17.9202C19.929 16.4237 20.1251 15.3442 20.2966 14.6818C19.5858 14.6082 18.8382 14.4794 18.0538 14.2954C17.2694 14.1114 16.4299 13.8293 15.5352 13.449C14.6405 13.0688 13.8071 12.6211 13.035 12.1059C12.2629 11.5907 11.5582 10.9344 10.9209 10.1371C10.2836 9.33979 9.79947 8.46887 9.46856 7.52436C9.13765 6.57984 8.99671 5.45746 9.04573 4.15722C9.09475 2.85698 9.38889 1.47087 9.92815 -0.00109863C10.3449 0.538624 10.878 1.26234 11.5275 2.17006C12.1771 3.07778 12.6796 3.75856 13.035 4.21242C13.3904 4.66628 13.8623 5.2244 14.4506 5.88679C15.0389 6.54917 15.6026 7.0521 16.1419 7.39556C16.6812 7.73902 17.3368 8.08248 18.109 8.42594C18.8811 8.7694 19.7574 9.02086 20.7379 9.18032C21.7183 9.33979 22.8214 9.41952 24.0469 9.41952C25.6892 7.84942 27.258 7.06436 28.7532 7.06436ZM49.049 46.182C48.1175 46.182 47.3515 46.4457 46.751 46.9732C46.1505 47.5007 45.8502 48.206 45.8502 49.0892V51.9963C45.8502 52.8795 46.1505 53.5848 46.751 54.1123C47.3515 54.6397 48.1175 54.9034 49.049 54.9034C49.9559 54.9034 50.7158 54.6397 51.3286 54.1123C51.9414 53.5848 52.2478 52.8795 52.2478 51.9963V49.0892C52.2478 48.206 51.9414 47.5007 51.3286 46.9732C50.7158 46.4457 49.9559 46.182 49.049 46.182ZM31.9888 46.182C31.0818 46.182 30.322 46.4457 29.7092 46.9732C29.0964 47.5007 28.79 48.206 28.79 49.0892V51.9963C28.79 52.8795 29.0964 53.5848 29.7092 54.1123C30.322 54.6397 31.0818 54.9034 31.9888 54.9034C32.9202 54.9034 33.6862 54.6397 34.2868 54.1123C34.8873 53.5848 35.1876 52.8795 35.1876 51.9963V49.0892C35.1876 48.206 34.8873 47.5007 34.2868 46.9732C33.6862 46.4457 32.9202 46.182 31.9888 46.182Z" fill="#F5AB48"/>
</svg>
