<svg width="70" height="75" viewBox="0 0 70 75" fill="none" xmlns="http://www.w3.org/2000/svg">
<path d="M67.7207 30.4363L37.0792 1.88923C36.0831 0.961188 34.7713 0.458944 33.418 0.487481C32.0648 0.516017 30.7748 1.07312 29.8177 2.04236L1.63641 30.5805L0.190186 32.0449V74.116H27.3464V47.866H42.1589V74.116H69.3152V31.9219L67.7207 30.4363ZM33.5242 5.48642C33.5677 5.48642 33.5408 5.49595 33.5222 5.51454C33.5029 5.49595 33.4807 5.48642 33.5242 5.48642ZM64.3777 69.116H47.0964V47.866C47.0964 46.5399 46.5762 45.2681 45.6503 44.3304C44.7243 43.3927 43.4684 42.866 42.1589 42.866H27.3464C26.0369 42.866 24.7811 43.3927 23.8551 44.3304C22.9291 45.2681 22.4089 46.5399 22.4089 47.866V69.116H5.12769V34.116L33.5242 5.57782C33.5262 5.57595 33.5263 5.57423 33.5279 5.57236L64.3777 34.116V69.116Z" fill="#F5AB48"/>
</svg>
