<svg width="72" height="71" viewBox="0 0 72 71" fill="none" xmlns="http://www.w3.org/2000/svg">
<path d="M53.7092 43.7341L50.2037 46.1387L40.6052 37.9201C40.0518 37.4463 39.3804 37.1561 38.7386 37.1136C38.0969 37.071 37.5374 37.2795 37.1832 37.6931C36.829 38.1067 36.7092 38.6917 36.8501 39.3192C36.991 39.9468 37.381 40.5655 37.9344 41.0394L46.6982 48.5433L29.1708 60.5663L20.407 53.0624C19.8536 52.5886 19.1821 52.2985 18.5404 52.2559C17.8986 52.2133 17.3391 52.4218 16.9849 52.8354C16.6308 53.2491 16.5109 53.834 16.6518 54.4616C16.7927 55.0891 17.1827 55.7079 17.7361 56.1817L25.6653 62.971L18.6543 67.7802C17.2376 69.4347 14.9996 70.2686 12.4326 70.0983C9.86555 69.928 7.17981 68.7675 4.96618 66.8721C2.75256 64.9768 1.19238 62.5017 0.628873 59.9915C0.065361 57.4813 0.544673 55.1416 1.96137 53.487L11.1423 34.3174L17.4022 39.6773C17.9556 40.1512 18.627 40.4413 19.2688 40.4839C19.9105 40.5264 20.47 40.318 20.8242 39.9043C21.1784 39.4907 21.2982 38.9058 21.1573 38.2782C21.0165 37.6507 20.6264 37.0319 20.073 36.5581L12.9785 30.4835L20.3233 15.1478C23.5283 11.4046 30.1603 11.5149 37.1179 14.8774L36.6855 3.64077C36.6633 3.03674 36.77 2.46913 36.9994 1.97058C37.2288 1.47204 37.5764 1.05239 38.0223 0.735788C38.4682 0.419182 39.0034 0.211862 39.5974 0.125753C40.1913 0.0396432 40.8321 0.0764421 41.483 0.234036C42.1324 0.384968 42.7805 0.653403 43.39 1.02399C43.9996 1.39457 44.5587 1.86004 45.0354 2.39377C45.5122 2.92749 45.8972 3.51901 46.1684 4.13449C46.4396 4.74997 46.5918 5.37734 46.6161 5.98072L46.7313 9.64742L51.5388 4.03273C52.2472 3.20545 53.3662 2.78853 54.6497 2.87367C55.9332 2.95881 57.2761 3.53906 58.3829 4.48675C59.4897 5.43445 60.2698 6.67196 60.5516 7.92706C60.8333 9.18216 60.5937 10.352 59.8853 11.1793L53.7958 18.2912L64.7029 18.2236C67.2018 18.0927 70.0063 20.2237 70.7975 22.8474C71.6155 25.4399 70.1415 27.5837 67.4907 27.6386L51.8979 27.8569C55.8625 33.9546 56.7806 40.1469 53.7092 43.7341Z" fill="#F5AB48"/>
</svg>
