<svg width="74" height="54" viewBox="0 0 74 54" fill="none" xmlns="http://www.w3.org/2000/svg">
<path d="M0.619629 16.5461L19.8029 54.0055L25.4325 51.1225C27.7983 53.7814 31.7262 54.6542 35.0298 52.9624C38.3334 51.2706 39.9209 47.5734 39.1462 44.0996L53.973 36.5067C56.3388 39.1656 60.2667 40.0384 63.5703 38.3466C66.8738 36.6548 68.4614 32.9575 67.6866 29.4838L73.3162 26.6008L63.8105 8.03884L63.0233 7.73721L46.8397 2.51547L46.0247 2.30015L36.3816 7.23847L32.7276 0.103352L0.619629 16.5461ZM6.01416 18.2867L30.9871 5.49789L46.5164 35.8221L37.3192 40.5321C34.9534 37.8732 31.0255 37.0004 27.7219 38.6922C24.4183 40.384 22.8308 44.0812 23.6055 47.555L21.5435 48.611L6.01416 18.2867ZM38.2086 10.806L46.348 6.63778L61.0139 11.3713L67.9217 24.8603L65.8597 25.9163C63.4938 23.2574 59.5659 22.3846 56.2624 24.0764C52.9588 25.7681 51.3713 29.4654 52.146 32.9392L50.0839 33.9951L38.2086 10.806ZM29.5489 42.2597C31.5414 41.2394 33.923 42.0078 34.9434 44.0003C35.9638 45.9928 35.1953 48.3745 33.2028 49.3949C31.2103 50.4152 28.8287 49.6468 27.8083 47.6543C26.7879 45.6618 27.5564 43.2801 29.5489 42.2597ZM58.0893 27.6439C60.0818 26.6236 62.4635 27.392 63.4839 29.3845C64.5042 31.377 63.7358 33.7587 61.7433 34.779C59.7508 35.7994 57.3691 35.0309 56.3487 33.0385C55.3284 31.046 56.0968 28.6643 58.0893 27.6439Z" fill="#F5AB48"/>
</svg>
