<svg width="70" height="78" viewBox="0 0 70 78" fill="none" xmlns="http://www.w3.org/2000/svg">
<path d="M60.6386 51.4318C62.1433 48.9539 62.9875 46.137 63.0832 43.2746C63.179 40.4121 62.5228 37.6088 61.183 35.1567C63.7782 34.3988 66.0307 32.659 67.4723 30.2989L63.0761 27.6243C62.3306 28.8471 61.1534 29.7382 59.8029 30.1019C58.4524 30.4656 57.0389 30.2723 55.8726 29.5644C52.4152 27.4676 48.2325 26.8773 44.2224 27.9202C40.2123 28.963 36.6946 31.556 34.4245 35.1423C33.4394 30.4147 34.3224 25.4005 36.8844 21.1737C38.1201 19.1296 38.6747 16.753 38.4614 14.4161C38.2481 12.0793 37.279 9.91427 35.7058 8.26033L38.7126 3.31808L34.3165 0.643561L31.3097 5.58582C29.1177 4.94908 26.7495 5.0837 24.5761 5.96858C22.4028 6.85346 20.5472 8.4386 19.2999 10.4756L12.2813 22.0122L7.88521 19.3377L6.48148 21.645C1.26941 30.2121 -0.48706 40.4008 1.59847 49.9696C3.684 59.5385 9.44069 67.7036 17.6021 72.6689C25.7636 77.6342 35.6613 78.9928 45.1178 76.4459C54.5743 73.8991 62.815 67.6553 68.0271 59.0882L69.4308 56.7809L60.6386 51.4318ZM53.0651 34.1791C55.3942 35.6002 57.0367 37.9331 57.6323 40.666C58.228 43.3989 57.7281 46.3088 56.2425 48.7573L38.658 38.0593C40.1495 35.6142 42.5039 33.8326 45.2047 33.1052C47.9055 32.3778 50.7323 32.764 53.0651 34.1791ZM23.6961 13.1502C24.4406 11.9263 25.6179 11.0343 26.9688 10.6705C28.3197 10.3066 29.7337 10.5007 30.8996 11.2101C32.0655 11.9194 32.8879 13.0858 33.1859 14.4528C33.4838 15.8198 33.2329 17.2753 32.4883 18.4992C29.9961 22.6153 28.7253 27.3438 28.8371 32.0844L16.6774 24.6867L23.6961 13.1502ZM20.4096 68.0543C13.802 64.0226 9.02189 57.5357 7.01379 49.8754C5.00569 42.2151 5.9157 33.9387 9.56399 26.6816L62.1393 58.6675C57.3715 65.244 50.4393 69.8571 42.7128 71.5951C34.9864 73.3331 27.0277 72.0696 20.4096 68.0543Z" fill="#F5AB48"/>
</svg>
