<svg width="60" height="77" viewBox="0 0 60 77" fill="none" xmlns="http://www.w3.org/2000/svg">
<path d="M55.1452 18.2149L51.4116 24.3958L36.076 28.1813L48.4722 7.65956L43.6919 4.77201L31.2957 25.2938L27.5102 9.95812L31.2438 3.77721L26.4635 0.889661L3.36316 39.1319C0.941982 43.1553 0.0491683 47.9154 0.847837 52.5427C1.6465 57.17 4.08333 61.3554 7.71311 64.3344L1.82251 74.0862L6.6028 76.9737L12.4934 67.2219C16.8192 69.0486 21.6578 69.2579 26.1253 67.8116C30.5927 66.3653 34.3906 63.36 36.8252 59.3448L59.9255 21.1025L55.1452 18.2149ZM10.631 59.5039C8.26847 57.3203 6.73108 54.389 6.27795 51.2041C5.82482 48.0191 6.48368 44.7753 8.14344 42.0195L11.877 35.8386L15.6625 51.1742L10.631 59.5039ZM19.7455 44.4149L15.96 29.0793L23.4272 16.7174L27.2127 32.0531L19.7455 44.4149ZM31.993 34.9406L47.3287 31.1552L39.8615 43.517L24.5258 47.3025L31.993 34.9406ZM15.4113 62.3914L20.4428 54.0618L35.7785 50.2763L32.0449 56.4572C30.3779 59.2087 27.8133 61.3013 24.7833 62.3823C21.7534 63.4633 18.4433 63.4665 15.4113 62.3914Z" fill="#F5AB48"/>
</svg>
