<svg width="15" height="15" viewBox="0 0 15 15" fill="none" xmlns="http://www.w3.org/2000/svg">
<path d="M6.96209 12.2601L11.0157 8.20654C11.1288 8.09345 11.1853 7.95952 11.1853 7.80476C11.1853 7.65 11.1288 7.51607 11.0157 7.40297L6.96209 3.3494C6.84899 3.2363 6.71506 3.17976 6.5603 3.17976C6.40554 3.17976 6.27161 3.2363 6.15852 3.3494L5.2478 4.26011C5.13471 4.37321 5.07816 4.50714 5.07816 4.6619C5.07816 4.81666 5.13471 4.95059 5.2478 5.06369L7.98887 7.80476L5.2478 10.5458C5.13471 10.6589 5.07816 10.7929 5.07816 10.9476C5.07816 11.1024 5.13471 11.2363 5.2478 11.3494L6.15852 12.2601C6.27161 12.3732 6.40554 12.4298 6.5603 12.4298C6.71506 12.4298 6.84899 12.3732 6.96209 12.2601ZM13.3549 4.36726C13.968 5.41488 14.2746 6.56071 14.2746 7.80476C14.2746 9.0488 13.968 10.1976 13.3549 11.2512C12.7419 12.2988 11.9085 13.1292 10.8549 13.7423C9.80733 14.3554 8.66149 14.6619 7.41745 14.6619C6.1734 14.6619 5.02459 14.3554 3.97102 13.7423C2.9234 13.1292 2.09304 12.2988 1.47995 11.2512C0.86685 10.1976 0.560303 9.0488 0.560303 7.80476C0.560303 6.56071 0.86685 5.41488 1.47995 4.36726C2.09304 3.31369 2.9234 2.48035 3.97102 1.86726C5.02459 1.25416 6.1734 0.947614 7.41745 0.947614C8.66149 0.947614 9.80733 1.25416 10.8549 1.86726C11.9085 2.48035 12.7419 3.31369 13.3549 4.36726Z" fill="white"/>
</svg>
