<svg width="38" height="40" viewBox="0 0 38 40" fill="none" xmlns="http://www.w3.org/2000/svg">
<path fill-rule="evenodd" clip-rule="evenodd" d="M37.5273 2.04741L36.4967 1.87662L36.2262 0.825762L37.781 0.390625L37.5283 2.04741H37.5273ZM23.7234 17.0923L22.8348 17.6623L22.8327 17.6601L22.8296 17.6547L22.8191 17.6373L22.7836 17.5753C22.7544 17.5231 22.7106 17.4469 22.6583 17.3501C22.512 17.0837 22.3711 16.8143 22.2355 16.5418C21.8063 15.6854 21.4317 14.8006 21.114 13.8929C20.7611 12.866 20.4583 11.69 20.4113 10.5522C20.3654 9.41863 20.5679 8.18828 21.3782 7.22336C22.106 6.35744 23.478 5.56005 24.92 4.87036C26.4142 4.15347 28.1726 3.46596 29.838 2.87091C31.9009 2.13691 33.9847 1.46795 36.0863 0.864924L36.1907 0.834465L36.2273 0.823586L36.4988 1.87553L37.5293 2.04632L37.5231 2.08657L37.5053 2.20188C37.4011 2.86926 37.2918 3.53576 37.1775 4.20134C36.8993 5.83811 36.5958 7.47008 36.2669 9.09663C35.8952 10.9253 35.4629 12.8421 35.0046 14.4466C34.7759 15.2484 34.5357 15.9892 34.2872 16.6114C34.0491 17.2098 33.7672 17.7907 33.4247 18.1997C32.6917 19.0721 31.5505 19.3452 30.5533 19.4148C29.5133 19.4877 28.3605 19.3561 27.3237 19.1646C26.399 18.9911 25.4831 18.7696 24.5796 18.501C24.2099 18.3925 23.8423 18.2765 23.477 18.1529L23.4112 18.129L23.3934 18.1225L23.3882 18.1214H23.3861L23.7244 17.0912L23.7234 17.0923ZM23.7234 17.0923L22.8348 17.6623L23.0311 17.9941L23.3861 18.1214L23.7234 17.0923ZM24.4251 16.1861C25.4941 16.5337 26.5824 16.8135 27.6839 17.0237C28.6487 17.2011 29.6135 17.3011 30.4134 17.2446C31.2581 17.1858 31.682 16.9704 31.8522 16.7681C31.9608 16.6376 32.1383 16.3286 32.3576 15.7782C32.5675 15.2527 32.7847 14.5902 33.0018 13.8277C33.4373 12.3047 33.856 10.4521 34.2235 8.64735C34.5762 6.90128 34.8993 5.14886 35.1925 3.3909L34.8699 3.4888C33.7119 3.84452 32.1477 4.34602 30.5157 4.9291C28.8805 5.51328 27.1963 6.1736 25.7919 6.84697C24.3342 7.54537 23.3506 8.17958 22.9497 8.65714C22.6291 9.03789 22.4641 9.62423 22.4986 10.4586C22.532 11.2886 22.7607 12.2318 23.0802 13.1575C23.3955 14.0735 23.7798 14.9199 24.0889 15.5399C24.2194 15.801 24.3353 16.0207 24.4251 16.1861ZM4.45125 4.78551L4.18081 5.83636L3.14917 6.00716L2.89648 4.35146L4.45229 4.7866L4.45125 4.78551ZM14.5608 18.2019L15.4494 18.7708L15.4515 18.7686L15.4536 18.7643L15.462 18.7501L15.4922 18.6979C15.6497 18.4185 15.8001 18.1348 15.9433 17.8472C16.219 17.2946 16.5709 16.5233 16.8653 15.6705C17.1556 14.8263 17.4083 13.8483 17.4469 12.8954C17.4866 11.9457 17.3174 10.8861 16.6137 10.0485C15.9914 9.30658 14.8396 8.64517 13.6702 8.08385C12.4475 7.4975 11.0117 6.93617 9.65536 6.45208C7.97543 5.85432 6.27859 5.30943 4.56715 4.81814L4.48153 4.79421L4.45125 4.78551L4.18081 5.83636L3.14917 6.00716L3.15439 6.03979L3.16901 6.13443L3.2254 6.48907C3.50714 8.24868 3.82429 10.0019 4.17663 11.7477C4.47944 13.2359 4.83237 14.7991 5.20618 16.11C5.39413 16.7648 5.59043 17.3751 5.79613 17.8897C5.99139 18.3792 6.2305 18.8785 6.53122 19.2353C7.1786 20.0077 8.17369 20.2361 8.99754 20.2927C9.86628 20.3536 10.8196 20.2438 11.6706 20.0882C12.7391 19.8883 13.7928 19.6106 14.824 19.2571L14.8772 19.2386L14.8929 19.2331L14.8981 19.231L14.5608 18.2019ZM14.5608 18.2019L15.4494 18.7708L15.2531 19.1037L14.8981 19.231L14.5608 18.2019ZM13.8581 17.2946C14.2661 16.5393 14.6143 15.7505 14.8992 14.9362C15.155 14.1932 15.3346 13.448 15.3607 12.8018C15.3878 12.1513 15.2563 11.7357 15.0422 11.4801C14.7467 11.1298 13.9845 10.6294 12.7973 10.0605C11.6654 9.51762 10.3038 8.98349 8.9777 8.51028C7.8225 8.09942 6.65904 7.71424 5.4881 7.35499L5.49228 7.38219C5.66979 8.42652 5.92247 9.83636 6.22006 11.2973C6.51765 12.7616 6.857 14.2595 7.20784 15.4899C7.3843 16.1056 7.55764 16.6376 7.7247 17.0553C7.90221 17.498 8.03586 17.7232 8.10269 17.8037C8.18831 17.9049 8.46502 18.0757 9.13746 18.1225C9.765 18.166 10.5314 18.0876 11.3083 17.9451C12.1704 17.7832 13.022 17.5656 13.8581 17.2935V17.2946ZM11.5714 27.6661C11.3062 27.6813 11.1767 27.7205 11.1433 27.7357C10.6703 27.9587 9.23352 28.4809 7.99305 28.9215C7.35611 29.1488 6.74528 29.362 6.2942 29.5198L6.26496 29.5307V35.4083C6.44873 35.3996 6.64608 35.392 6.8476 35.3843C7.71217 35.3517 8.74067 35.3191 9.18653 35.3387C11.0577 35.4159 12.4631 35.8771 13.7642 36.3047L13.7923 36.3145C15.0119 36.7148 16.1417 37.0825 17.6213 37.1989C18.039 37.2315 18.4451 37.2739 18.8242 37.3131H18.8294C20.285 37.4654 21.2435 37.5415 21.9859 37.2609C22.5633 37.0422 24.6778 36.0207 26.8099 34.9035C27.8646 34.3509 28.8983 33.7885 29.72 33.3066C30.1325 33.0651 30.4823 32.8497 30.7506 32.6691C30.8843 32.5788 30.9908 32.5027 31.0722 32.4406C31.1042 32.4162 31.1356 32.3908 31.1662 32.3645L31.1954 32.3384C31.2999 32.2285 31.4105 31.8456 31.2309 31.4855C31.1464 31.3171 31.0068 31.1859 30.8373 31.1157C30.6285 31.021 30.2734 30.9481 29.7096 31.0449C28.4378 31.2625 26.9185 31.9 25.4014 32.5429L25.3805 32.5527C24.635 32.8682 23.8873 33.1847 23.2243 33.4153C22.5873 33.6362 21.8804 33.8342 21.2644 33.7961C20.4186 33.7417 18.9349 33.5133 17.7111 33.3066C17.0078 33.1881 16.3054 33.0641 15.604 32.9345L15.4682 32.9095L15.4202 32.8997L15.6186 30.7414L20.3904 30.8013H20.4009C20.4566 30.795 20.5118 30.7841 20.5658 30.7686C20.7308 30.7251 21.0138 30.6174 21.3698 30.3552C21.4795 30.2737 21.6236 30.1235 21.7583 29.9223C21.8136 29.8385 21.8606 29.7558 21.9003 29.6764C21.3185 29.6379 20.7404 29.5528 20.1711 29.4219C19.8612 29.3516 19.5536 29.2699 19.2491 29.1771L19.2136 29.1662L13.3695 27.8108L13.3141 27.801C13.003 27.7472 12.6898 27.7073 12.3754 27.6813C12.108 27.6582 11.8394 27.6531 11.5714 27.6661ZM13.5741 26.7447L13.7631 25.6754L13.7819 25.6786L19.7524 27.0623L19.7963 27.0765L19.8046 27.0798L19.8443 27.0917L20.0093 27.1407C20.1544 27.182 20.3633 27.2386 20.6118 27.2951C21.1192 27.4094 21.7541 27.5149 22.3409 27.5149C22.9288 27.5149 23.5678 27.7433 23.9124 28.3939C24.2068 28.9508 24.1338 29.5535 24.0304 29.9517C23.9344 30.3037 23.7914 30.6399 23.6054 30.9503C23.9228 30.8198 24.2601 30.6783 24.6141 30.5282L24.6788 30.4999C26.1177 29.8907 27.8426 29.1597 29.3702 28.8975C31.1453 28.5951 32.4766 29.2587 33.0854 30.4858C33.6221 31.5682 33.503 32.9954 32.6834 33.8635C32.4777 34.0811 32.1717 34.3019 31.8794 34.4988C31.5619 34.711 31.1735 34.9503 30.7433 35.2027C29.8819 35.7074 28.8158 36.2873 27.7466 36.8475C25.6353 37.9538 23.4112 39.0362 22.697 39.306C21.4586 39.7738 20.026 39.6248 18.7532 39.492L18.6206 39.4779C18.2354 39.4367 17.8497 39.4005 17.4636 39.3691C15.7303 39.232 14.4021 38.7958 13.1888 38.3977L13.1627 38.389C11.8575 37.9604 10.6818 37.5785 9.103 37.5122C8.75634 37.498 7.82285 37.5241 6.92278 37.5589C6.41593 37.5781 5.90916 37.5995 5.40248 37.6231L5.26778 37.6297L4.17559 37.6819V27.9609L5.09132 27.6443C5.83437 27.3871 6.57643 27.1267 7.31748 26.8633C8.61642 26.4009 9.9258 25.9212 10.2829 25.7537C10.6661 25.5731 11.1015 25.5144 11.4503 25.4926C11.821 25.4708 12.2021 25.4872 12.5352 25.5133C12.9361 25.546 13.3354 25.5979 13.7318 25.6688L13.7537 25.6732H13.76L13.7621 25.6743H13.7642L13.5741 26.7447Z" fill="#F5AB48"/>
<path fill-rule="evenodd" clip-rule="evenodd" d="M30.4373 8.33863C30.5415 8.43148 30.6272 8.54482 30.6893 8.67215C30.7515 8.79949 30.789 8.93834 30.7997 9.08077C30.8103 9.22321 30.794 9.36644 30.7515 9.50228C30.709 9.63812 30.6413 9.76392 30.5522 9.87249C27.4395 13.656 23.5646 19.2007 21.8543 23.7077C21.8038 23.8405 21.7287 23.9617 21.6333 24.0644C21.5379 24.167 21.424 24.249 21.2981 24.3058C21.1723 24.3626 21.0369 24.393 20.8998 24.3952C20.7627 24.3975 20.6265 24.3716 20.4989 24.319C20.3714 24.2665 20.2551 24.1882 20.1566 24.0888C20.0581 23.9894 19.9793 23.8708 19.9248 23.7396C19.8704 23.6085 19.8412 23.4675 19.839 23.3246C19.8368 23.1818 19.8617 23.0399 19.9121 22.907C21.753 18.0563 25.8127 12.2897 28.965 8.45721C29.1453 8.23824 29.4017 8.10285 29.6778 8.08082C29.9539 8.05878 30.2271 8.15191 30.4373 8.33972V8.33863Z" fill="#F5AB48"/>
<path fill-rule="evenodd" clip-rule="evenodd" d="M9.79421 11.8282C9.68654 11.9168 9.59666 12.0265 9.52972 12.1513C9.46279 12.276 9.4201 12.4133 9.4041 12.5552C9.3881 12.6972 9.3991 12.841 9.43648 12.9785C9.47385 13.116 9.53687 13.2445 9.62193 13.3566C11.9629 16.4516 14.5191 20.4124 15.7324 23.6977C15.8365 23.9599 16.0349 24.1693 16.2852 24.2813C16.5355 24.3932 16.8179 24.3988 17.0721 24.2969C17.3264 24.195 17.5323 23.9936 17.646 23.7358C17.7597 23.4779 17.7722 23.1839 17.6808 22.9166C16.3537 19.3224 13.642 15.1548 11.2613 12.0099C11.0899 11.7833 10.8393 11.6369 10.5644 11.6028C10.2895 11.5688 10.0128 11.6498 9.79526 11.8282H9.79421Z" fill="#F5AB48"/>
<path d="M0 25.4829H6.26499V39.6249H0V25.4829Z" fill="#F5AB48"/>
</svg>
