<svg width="229" height="283" viewBox="0 0 229 283" fill="none" xmlns="http://www.w3.org/2000/svg">
<path d="M191.018 76.8856L194.491 91.3425L147.45 121.382C144.738 123.114 142.535 125.399 141.326 127.734C140.118 130.07 140.002 132.264 141.005 133.835C142.008 135.405 144.048 136.224 146.675 136.11C149.302 135.996 152.301 134.959 155.013 133.227L197.964 105.799L215.33 178.084L172.38 205.511C169.667 207.243 167.465 209.528 166.256 211.863C165.048 214.199 164.932 216.393 165.935 217.964C166.938 219.534 168.977 220.353 171.604 220.239C174.232 220.125 177.231 219.088 179.943 217.356L218.804 192.54L225.75 221.454C229.762 227.737 229.3 236.515 224.466 245.856C219.632 255.197 210.821 264.337 199.972 271.265C189.123 278.193 177.125 282.341 166.617 282.797C156.108 283.253 147.951 279.98 143.939 273.697L85.6673 227.534L116.346 207.943C119.059 206.211 121.261 203.926 122.47 201.591C123.679 199.255 123.794 197.061 122.791 195.49C121.788 193.92 119.749 193.101 117.122 193.215C114.494 193.329 111.495 194.366 108.783 196.098L74.013 218.301L27.3957 181.371C18.3191 167.157 29.5495 142.811 53.7347 119.363L10.1022 113.709C7.75837 113.402 5.76375 112.643 4.23303 111.477C2.70232 110.311 1.66572 108.76 1.18283 106.915C0.699944 105.069 0.78032 102.964 1.41933 100.722C2.05833 98.48 3.24335 96.1443 4.90625 93.8495C6.54128 91.5559 8.62293 89.3431 11.0322 87.3379C13.4414 85.3326 16.1309 83.5742 18.9469 82.1631C21.7629 80.752 24.6502 79.716 27.4436 79.1143C30.237 78.5126 32.8817 78.3569 35.2266 78.6563L49.4224 80.5966L35.8076 59.2761C33.8016 56.1346 34.0325 51.7459 36.4497 47.0752C38.8669 42.4045 43.2722 37.8346 48.6966 34.3707C54.121 30.9067 60.1202 28.8326 65.3743 28.6046C70.6284 28.3766 74.7071 30.0133 76.7132 33.1547L93.9586 60.1606L111.477 19.9598C115.049 10.675 127.761 1.72392 139.074 0.50253C150.312 -0.837308 156.099 5.97183 151.989 15.7669L127.409 73.3164C157.166 62.6517 182.32 63.2642 191.018 76.8856Z" fill="#F5AB48" fill-opacity="0.3"/>
</svg>
