<svg width="15" height="12" viewBox="0 0 15 12" fill="none" xmlns="http://www.w3.org/2000/svg">
<path d="M14.541 1.99337C14.7076 2.16004 14.791 2.36242 14.791 2.60052C14.791 2.83861 14.7076 3.04099 14.541 3.20766L8.0767 9.67194L6.86241 10.8862C6.69574 11.0529 6.49336 11.1362 6.25527 11.1362C6.01717 11.1362 5.81479 11.0529 5.64812 10.8862L4.43384 9.67194L1.2017 6.4398C1.03503 6.27314 0.951695 6.07075 0.951695 5.83266C0.951695 5.59456 1.03503 5.39218 1.2017 5.22552L2.41598 4.01123C2.58265 3.84456 2.78503 3.76123 3.02312 3.76123C3.26122 3.76123 3.4636 3.84456 3.63027 4.01123L6.25527 6.64516L12.1124 0.779087C12.2791 0.61242 12.4815 0.529087 12.7196 0.529087C12.9576 0.529087 13.16 0.61242 13.3267 0.779087L14.541 1.99337Z" fill="#54A029"/>
</svg>
