<svg width="60" height="61" viewBox="0 0 60 61" fill="none" xmlns="http://www.w3.org/2000/svg">
<circle cx="29.7756" cy="30.4475" r="29.7136" fill="#F5AB48"/>
<path d="M16.7756 29.4475C16.2233 29.4475 15.7756 29.8952 15.7756 30.4475C15.7756 30.9998 16.2233 31.4475 16.7756 31.4475V29.4475ZM43.4827 31.1546C43.8733 30.7641 43.8733 30.1309 43.4827 29.7404L37.1188 23.3764C36.7283 22.9859 36.0951 22.9859 35.7046 23.3764C35.314 23.7669 35.314 24.4001 35.7046 24.7906L41.3614 30.4475L35.7046 36.1043C35.314 36.4949 35.314 37.128 35.7046 37.5185C36.0951 37.9091 36.7283 37.9091 37.1188 37.5185L43.4827 31.1546ZM16.7756 31.4475H42.7756V29.4475H16.7756V31.4475Z" fill="#F2F2F2"/>
</svg>
