<svg width="49" height="49" viewBox="0 0 49 49" fill="none" xmlns="http://www.w3.org/2000/svg">
<circle cx="24.783" cy="24.4475" r="24" transform="rotate(-180 24.783 24.4475)" fill="white"/>
<path d="M35.0681 25.4475C35.6204 25.4475 36.0681 24.9998 36.0681 24.4475C36.0681 23.8952 35.6204 23.4475 35.0681 23.4475L35.0681 25.4475ZM14.232 23.7404C13.8415 24.1309 13.8415 24.7641 14.232 25.1546L20.5959 31.5185C20.9865 31.9091 21.6196 31.9091 22.0102 31.5185C22.4007 31.128 22.4007 30.4949 22.0102 30.1043L16.3533 24.4475L22.0102 18.7906C22.4007 18.4001 22.4007 17.7669 22.0102 17.3764C21.6196 16.9859 20.9865 16.9859 20.5959 17.3764L14.232 23.7404ZM35.0681 23.4475L14.9391 23.4475L14.9391 25.4475L35.0681 25.4475L35.0681 23.4475Z" fill="#1E1B1B"/>
</svg>
